<svg id="visual" viewBox="0 0 1536 695" width="1536" height="695" xmlns="http://www.w3.org/2000/svg" xmlns:xlink="http://www.w3.org/1999/xlink" version="1.1"><rect x="0" y="0" width="1536" height="695" fill="#f7f8fa"></rect><defs><linearGradient id="grad1_0" x1="54.8%" y1="100%" x2="100%" y2="0%"><stop offset="5.798561151079138%" stop-color="#f7f8fa" stop-opacity="1"></stop><stop offset="94.20143884892087%" stop-color="#f7f8fa" stop-opacity="1"></stop></linearGradient></defs><defs><linearGradient id="grad2_0" x1="0%" y1="100%" x2="45.2%" y2="0%"><stop offset="5.798561151079138%" stop-color="#f7f8fa" stop-opacity="1"></stop><stop offset="94.20143884892087%" stop-color="#f7f8fa" stop-opacity="1"></stop></linearGradient></defs><g transform="translate(1536, 695)"><path d="M-278 0C-277.8 -30.7 -277.6 -61.3 -264.4 -85.9C-251.1 -110.5 -224.8 -129.1 -204.7 -148.7C-184.5 -168.4 -170.6 -189.1 -152.2 -209.5C-133.9 -230 -111.1 -250.2 -85 -261.5C-58.9 -272.9 -29.4 -275.5 0 -278L0 0Z" fill="#FF7F50"></path></g><g transform="translate(0, 0)"><path d="M278 0C263.8 27.4 249.7 54.8 234 76C218.2 97.2 201 112.1 191.7 139.3C182.5 166.5 181.4 205.8 163.4 224.9C145.4 244 110.7 242.8 80.7 248.2C50.6 253.7 25.3 265.8 0 278L0 0Z" fill="#FF7F50"></path></g></svg>