<?xml version="1.0"?>
<svg width="606.78384" height="466.94693" xmlns="http://www.w3.org/2000/svg" xmlns:svg="http://www.w3.org/2000/svg">
 <g class="layer">
  <title>Layer 1</title>
  <path d="m-23.89,459.76c0,0.66 0.92,1.19 2.06,1.19l626.54,0c1.14,0 2.06,-0.53 2.06,-1.19c0,-0.66 -0.92,-1.19 -2.06,-1.19l-626.54,0c-1.14,0 -2.06,0.53 -2.06,1.19z" fill="#ccc" id="svg_1"/>
  <g id="svg_2">
   <path d="m463.73,201.22l-12.81,-88.46l11.3,-1.23c11.82,-1.28 22.82,5.66 26.75,16.87c7.12,9.12 11.27,19.83 11.46,32.66c4.6,13.11 -2.28,27.64 -15.34,32.39l-21.36,7.77z" fill="#3f3d56" id="svg_3"/>
   <g id="svg_4">
    <polygon fill="#a0616a" id="svg_5" points="465.185302734375,437.73760986328125 456.5777587890625,437.94073486328125 451.77978515625,399.270263671875 464.482421875,398.9696044921875 465.185302734375,437.73760986328125 "/>
    <path d="m435.65,455.7l0,0c0,1.45 1.04,2.63 2.31,2.63l17.08,0s1.69,-6.76 8.54,-9.67l0.47,9.67l8.82,0l-1.07,-15.55s2.36,-8.31 -2.54,-12.56c-4.9,-4.25 -0.93,-3.66 -0.93,-3.66l-1.93,-9.62l-13.31,1.56l-0.1,15.11l-6.47,14.99l-9.48,4.68c-0.84,0.42 -1.39,1.37 -1.39,2.42l0,0z" fill="#2f2e41" id="svg_6"/>
   </g>
   <g id="svg_7">
    <polygon fill="#a0616a" id="svg_8" points="433.7376708984375,437.444580078125 425.130126953125,437.647705078125 420.3321533203125,398.9771728515625 433.0347900390625,398.67657470703125 433.7376708984375,437.444580078125 "/>
    <path d="m404.21,455.4l0,0c0,1.46 1.03,2.64 2.3,2.64l17.09,0s1.68,-6.76 8.53,-9.67l0.48,9.67l8.81,0l-1.07,-15.55s2.36,-8.31 -2.54,-12.57c-4.89,-4.25 -0.93,-3.66 -0.93,-3.66l-1.92,-9.62l-13.32,1.57l-0.1,15.1l-6.46,14.99l-9.48,4.69c-0.85,0.41 -1.39,1.36 -1.39,2.41l0,0z" fill="#2f2e41" id="svg_9"/>
   </g>
   <path d="m458.52,107.48l-31,5.39c-2.13,-5.47 -12.47,-20.55 -13.36,-25.9c-2.3,-13.92 8.07,-26.74 22.14,-27.79l0,0c13.49,-1.01 21.7,1.52 22.85,14.36c0.4,4.51 6.27,8.57 7.45,12.94c6.51,24.07 -6.52,15.87 -8.08,21z" fill="#2f2e41" id="svg_10"/>
   <path d="m411.98,208.32l-2.02,31l8.68,172.72l16,-3l10.79,-140.74l3.95,143.19l18.87,0.68l13.26,-168.17c1.01,-12.85 -2.36,-25.66 -9.56,-36.35l0,0l-59.97,0.67z" fill="#2f2e41" id="svg_11"/>
   <path d="m451.06,108.59l-24.73,0l-5.59,8.76l-19.54,8.08l10.78,76.83l-2.7,33.02c15.24,5.16 50.6,13.17 76.17,-7.95l-22.93,-41.25l5.39,-57.95l-10.44,-9.5l-6.41,-10.04z" fill="#FF7F50" id="svg_12"/>
   <circle cx="437.38" cy="85.54" fill="#a0616a" id="svg_13" r="18.69"/>
   <path d="m483.51,253.2c-0.4,-2.03 -0.31,-3.98 0.16,-5.58l-5.04,-19.08l9.15,-2.14l4.13,19.59c1.05,1.3 1.88,3.07 2.28,5.1c0.91,4.63 -0.73,8.86 -3.68,9.44c-2.95,0.59 -6.08,-2.7 -7,-7.33l0,0z" fill="#a0616a" id="svg_14"/>
   <path d="m455.44,123.75s11.46,-4.72 16.85,4.04c5.39,8.76 19.54,111.87 19.54,111.87l-11.79,1.68l-23.25,-83.22l-1.35,-34.37z" fill="#FF7F50" id="svg_15"/>
   <polygon fill="#3f3d56" id="svg_16" points="463.6378173828125,183.03543090820312 454.07177734375,115.962890625 462.220458984375,122.4803466796875 463.6378173828125,183.03543090820312 "/>
   <g id="svg_17">
    <path d="m458.6,140.41c-1.53,1.58 -3.28,2.67 -4.97,3.23l-13.63,15.91l-7.38,-6.71l14.62,-15.42c0.5,-1.7 1.55,-3.49 3.08,-5.06c3.49,-3.6 8.18,-4.71 10.47,-2.48c2.29,2.22 1.31,6.94 -2.19,10.53l0,0z" fill="#a0616a" id="svg_18"/>
    <path d="m413.69,120.8s-12.88,1.48 -13.85,6.84s5.99,55.13 5.99,55.13l9.68,10.27l37.83,-45.07l-11.38,-7.14l-17.48,13.74l-10.79,-33.77z" fill="#FF7F50" id="svg_19"/>
   </g>
   <path d="m435.09,62.15c-7.6,1.34 -14.97,5.45 -18.91,12.09c-3.94,6.63 -11.17,15.88 -5.93,21.54c1.81,1.96 4.12,3.44 5.75,5.56c2.77,3.59 3.17,8.64 1.79,12.97s-4.35,7.99 -7.74,11c7.26,-0.75 13.88,-5.9 16.39,-12.75c1.16,-3.17 1.39,-6.98 -0.59,-9.71c-1.04,-1.44 -2.58,-2.42 -3.91,-3.6c-3.42,-3.05 -1.22,-7.65 -1.2,-12.23s0.6,-7.76 4.04,-10.78c2.38,1.9 10.25,1.44 13.25,0.95c2.99,-0.48 11.38,11.03 13.03,8.48c3.24,4.16 1.03,-4.4 0.42,0.83c-0.44,3.74 -2.89,6.97 -3.63,10.66c-0.65,3.22 0.06,6.56 1.19,9.64c2.55,6.94 7.34,13.04 13.48,17.16c-3.54,-5.01 -7.24,-10.49 -7.12,-16.62c0.08,-4.56 9.78,-21.95 11.14,-26.3c2.6,-8.31 -4.55,-9.53 -10.09,-16.26c-4.85,-5.91 -14.25,-4.08 -21.7,-2.33" fill="#2f2e41" id="svg_20"/>
  </g>
  <g id="svg_76">
   <g id="svg_79">
    <path d="m167.36,118.8l-26.01,-24.92l2.68,-12.54c1.09,-11.31 14.14,-18.9 12.53,-22.33l18.34,7.26l-7.53,52.52l-0.01,0.01z" fill="#2f2e41" id="svg_37"/>
    <path d="m85.01,447.72a1.55,1.53 0 0 1 -1.13,-2.65l0.11,-0.42q-0.02,-0.05 -0.04,-0.1a4.17,4.1 0 0 0 -7.69,0.03c-1.26,2.98 -2.86,5.97 -3.26,9.12a12.34,12.14 0 0 0 0.22,4.18a49.48,48.67 0 0 1 -4.5,-20.22a47.76,46.98 0 0 1 0.29,-5.24q0.25,-2.14 0.68,-4.25a50.05,49.24 0 0 1 9.93,-20.87a13.32,13.1 0 0 0 5.54,-5.66a10.16,9.99 0 0 0 0.92,-2.73c-0.27,0.03 -1.01,-4.01 -0.81,-4.26c-0.37,-0.56 -1.05,-0.84 -1.46,-1.39c-2.04,-2.72 -4.85,-2.25 -6.32,1.45c-3.14,1.56 -3.17,4.13 -1.25,6.62c1.23,1.58 1.4,3.72 2.47,5.41c-0.12,0.13 -0.23,0.27 -0.34,0.41a50.38,49.56 0 0 0 -5.26,8.2a20.94,20.6 0 0 0 -1.25,-9.57c-1.2,-2.84 -3.44,-5.23 -5.41,-7.69a4.3,4.23 0 0 0 -7.66,2.08q-0.01,0.05 -0.01,0.11q0.44,0.24 0.86,0.52a2.11,2.07 0 0 1 -0.85,3.77l-0.04,0.01a20.97,20.63 0 0 0 0.55,3.08c-2.53,9.64 2.94,13.15 10.75,13.31c0.17,0.09 0.34,0.18 0.51,0.26a51.42,50.58 0 0 0 -2.77,12.81a48.77,47.97 0 0 0 0.03,7.75l-0.01,-0.09a12.89,12.68 0 0 0 -4.4,-7.32c-3.38,-2.73 -8.17,-3.74 -11.82,-5.94a2.42,2.38 0 0 0 -3.7,2.31l0.01,0.1a14.15,13.92 0 0 1 1.59,0.75q0.44,0.25 0.86,0.52a2.11,2.07 0 0 1 -0.85,3.78l-0.04,0c-0.03,0.01 -0.06,0.01 -0.09,0.01a20.98,20.64 0 0 0 3.86,5.95c1.58,8.42 8.39,9.22 15.67,6.77l0,0a51.4,50.57 0 0 0 3.46,9.91l12.34,0c0.04,-0.13 0.08,-0.27 0.12,-0.4a14.01,13.78 0 0 1 -3.42,-0.2c0.92,-1.1 1.83,-2.22 2.75,-3.33a0.77,0.75 0 0 0 0.06,-0.06c0.47,-0.57 0.93,-1.13 1.4,-1.7l0,0a20.53,20.2 0 0 0 -0.6,-5.14l0,0.01z" fill="#f2f2f2" id="svg_38"/>
    <polygon fill="#a0616a" id="svg_39" points="184.550537109375,408.03875732421875 182.593994140625,421.59429931640625 182.593994140625,421.628662109375 181.94775390625,426.1383056640625 180.899658203125,433.3800048828125 180.899658203125,433.3887939453125 180.463623046875,436.4378662109375 179.80859375,440.973876953125 173.9576416015625,440.85333251953125 172.2113037109375,440.810302734375 171.2940673828125,440.79345703125 171.3817138671875,436.79010009765625 171.5999755859375,426.1727294921875 171.992919921875,407.78155517578125 172.0716552734375,407.78155517578125 173.8179931640625,407.81591796875 180.7950439453125,407.9620361328125 182.5419921875,407.99639892578125 184.550537109375,408.03875732421875 "/>
    <path d="m198.16,454.89a3.82,3.76 0 0 1 -3.89,3.67l-2.79,-0.06l-1.75,-0.03l-6.98,-0.14l-1.76,-0.03l-3.65,-0.07l-2.79,-6l-0.55,2.57l0,0.01l-0.72,3.33l-1.02,-0.02l-5.36,-0.11l2.23,-21.12l2.23,-0.09l0.81,-0.03l1.75,-0.07l6.52,-0.25l0.01,0l0.46,-0.02l1.75,-0.07l0.73,-0.03l-0.13,6l6.42,4.56l1.76,1.25l5.14,3.65a3.81,3.74 0 0 1 1.58,3.11l0,-0.01z" fill="#2f2e41" id="svg_40"/>
    <polygon fill="#a0616a" id="svg_41" points="98.251220703125,388.8194580078125 90.833984375,400.40386962890625 90.819580078125,400.43548583984375 88.3565673828125,404.2913818359375 84.3916015625,410.479248046875 84.3875732421875,410.48724365234375 82.7220458984375,413.09466552734375 80.2398681640625,416.970703125 74.9503173828125,414.5087890625 73.3743896484375,413.7674560546875 72.544677734375,413.383544921875 74.28759765625,409.7647705078125 78.8980712890625,400.162841796875 86.8978271484375,383.53521728515625 86.9697265625,383.56689453125 88.5496826171875,384.30029296875 94.8564453125,387.239013671875 96.4364013671875,387.9722900390625 98.251220703125,388.8194580078125 "/>
    <path d="m91.21,437.05a3.82,3.76 0 0 1 -5.07,1.78l-2.53,-1.18l-1.58,-0.73l-6.31,-2.93l-1.59,-0.73l-3.3,-1.54l-0.05,-6.59l-1.57,2.13l0,0.01l-2.04,2.75l-0.92,-0.43l-4.85,-2.26l10.82,-18.38l2.07,0.81l0.76,0.3l1.62,0.64l6.04,2.39l0.01,0.01l0.42,0.16l1.62,0.64l0.67,0.27l-2.61,5.42l3.97,6.75l1.08,1.84l3.18,5.4a3.81,3.74 0 0 1 0.15,3.47l0.01,0z" fill="#2f2e41" id="svg_42"/>
    <path d="m220.46,228.39l-17.08,-27.39l9.08,-8.58l15.56,31.61a6.83,6.72 0 1 1 -7.56,4.36z" fill="#a0616a" id="svg_43"/>
    <path d="m167.5,141.36l7.71,-7.41s6.74,-2.05 12.97,8.54s19.89,39.35 19.89,39.35l5.12,4.8l0.68,1.65l4.46,4.09l-0.86,1.99l5.21,1.56l-15.31,13.52l-7.83,-8.18l-0.03,-4.87l-3.4,-1.42l-3.35,-2.74l-1.21,-4.49l-24.03,-46.4l-0.02,0.01z" fill="#2f2e41" id="svg_44"/>
    <polygon fill="#a0616a" id="svg_45" points="136.8970947265625,162.909423828125 136.8970947265625,206.32186889648438 188.2388916015625,197.2525634765625 175.2322998046875,158.19564819335938 136.8970947265625,162.909423828125 "/>
    <path d="m187.9,193.55l-55.45,6.73l-6.16,47.14l-5.48,77.44l-43.13,67.34l20.54,4.71l55.45,-65.99l11.64,-61.23l3.42,151.46l17.8,0.67l17.8,-152.19s-0.68,-71.38 -16.43,-76.09l0,0.01z" fill="#2f2e41" id="svg_46"/>
    <path d="m163.59,109.04l-21.91,-6.06l-10.27,14.14l9.93,83.84s36.97,-26.94 41.07,-2.02l1.71,-32.66s1.86,-21.55 -2.15,-23.23s-19.07,-22.56 -19.07,-22.56l0.68,-11.45l0.01,0z" fill="#FF7F50" id="svg_47"/>
    <path d="m126.63,107.69l-7.91,7.77l-10.58,76.4l26.61,26.17s28.84,-50.41 8.3,-92.16l-3.83,-19.51l-12.6,1.33l0.01,0z" fill="#2f2e41" id="svg_48"/>
    <polygon fill="#2f2e41" id="svg_49" points="162.9102783203125,117.752197265625 192.34619140625,144.72772216796875 201.929931640625,220.14804077148438 178.655029296875,214.7608642578125 180.708740234375,158.86904907226562 160.1719970703125,122.50570678710938 162.9102783203125,117.752197265625 "/>
    <path d="m159.91,282.78l-83,0a7.8,7.67 0 0 1 -7.79,-7.67l0,-31.48a28.01,27.55 0 0 1 27.97,-27.51l32.46,0a38.19,37.57 0 0 1 38.14,37.52l0,21.47a7.8,7.67 0 0 1 -7.79,7.67l0.01,0z" fill="#FF7F50" id="svg_51"/>
    <path d="m106.88,217.4l7.43,-37.94l2.13,-10.88c0.25,-1.27 -1.73,-1.82 -1.98,-0.54l-7.43,37.93l-2.14,10.89c-0.25,1.27 1.73,1.81 1.98,0.54l0.01,0z" fill="#FF7F50" id="svg_52"/>
    <path d="m209.86,112.9l-9.98,2.35l-1.37,0.32l-34.36,8.1a4.48,4.4 0 0 0 -4.48,4.4l0,44.42a4.48,4.4 0 0 0 4.48,4.4l22.17,-5.23l1.37,-0.32l22.17,-5.23a4.48,4.41 0 0 0 4.48,-4.4l0,-44.42a4.48,4.41 0 0 0 -4.48,-4.4l0,0.01z" fill="#e6e6e6" id="svg_53"/>
    <path d="m213,145.19l0,-26.94a4.1,4.03 0 0 0 -4.1,-4.03l-9.02,2.68l-1.37,0.41l-25.85,7.68a11.65,11.46 0 0 0 -11.65,11.46l0,35.1a4.1,4.03 0 0 0 4.1,4.03l21.21,-5.3l1.37,-0.34l18.7,-4.67c6.13,0 7.48,-2.86 7.48,-7.27c0,-3.51 -0.86,-8.01 -0.86,-12.81l-0.01,0z" fill="#fff" id="svg_54"/>
    <path d="m187.68,140.66l0,30.69l-1.37,0.32l0,-30.34l-25.31,0a0.68,0.67 0 0 1 0,-1.35l25.99,0a0.68,0.67 0 0 1 0.68,0.67l0.01,0.01z" fill="#e6e6e6" id="svg_55"/>
    <path d="m214.33,131.07l0,1.05a0.67,0.66 0 0 1 -0.42,0.15l-14.72,0a0.68,0.67 0 0 1 -0.68,-0.67l0,-16.03l1.37,-0.32l0,15.68l14.03,0a0.67,0.66 0 0 1 0.42,0.15l0,-0.01z" fill="#e6e6e6" id="svg_56"/>
    <circle cx="186.53" cy="140.35" fill="#FF7F50" id="svg_57" r="3.97"/>
    <circle cx="156.06" cy="82.3" fill="#a0616a" id="svg_58" r="20.41"/>
    <path d="m181.34,82.99l-1.54,4.15l-2.4,-0.5a11.58,11.39 0 0 0 -0.29,-4.42a7.63,7.5 0 0 1 -2.18,3.54l-7.49,-2.69c-11.47,-0.08 -13.83,17.49 -15.83,35.73l-21.36,-16.46a11.44,11.25 0 0 0 -0.38,-3.29a7.3,7.19 0 0 1 -1.03,2.2l-2.57,-1.98l1.99,-23.78a21.02,20.67 0 0 1 26.93,-18.13l13.26,6.01l4.37,-0.46c7.61,2.73 11.28,12.58 8.51,20.07l0.01,0.01z" fill="#2f2e41" id="svg_59"/>
    <path d="m130.58,215.77l-32.46,0a27.91,27.45 0 0 0 -20.77,9.1a27.86,27.41 0 0 1 18.72,-7.08l32.46,0a38.19,37.57 0 0 1 38.14,37.52l0,21.47a7.74,7.62 0 0 1 -1.36,4.32a7.79,7.66 0 0 0 3.41,-6.34l0,-21.47a38.19,37.57 0 0 0 -38.14,-37.52z" fill="#3f3d56" id="svg_60"/>
    <path d="m116.62,116.58c2.1,-1.79 5.48,-1.02 7.39,0.69c2.38,2.13 3.37,5.3 4.17,8.27a103.39,101.7 0 0 1 3.07,22.05c0.28,7.46 -0.01,14.94 -0.43,22.39c-0.44,7.71 -0.93,15.42 -1.4,23.13l-1.61,26.42c-0.08,1.3 1.97,1.29 2.05,0c0.99,-16.31 2.04,-32.61 2.97,-48.92c0.88,-15.46 1.35,-31.36 -2.9,-46.43c-0.96,-3.39 -2.38,-6.99 -5.43,-9.08c-2.76,-1.91 -6.69,-2.19 -9.33,0.05c-1.01,0.86 0.45,2.28 1.45,1.43z" fill="#FF7F50" id="svg_61"/>
    <path d="m156.41,152.34l-29.23,20.71l5.52,12.54l29.52,-25.64a7.53,7.41 0 1 0 -5.81,-7.61z" fill="#a0616a" id="svg_62"/>
    <path d="m118.02,116l0,0s7.67,1.26 8.5,14.72s0.64,38.88 0.64,38.88l7.28,-5.56l7.3,-2.04l5.18,12.7l-4.08,6.71l-4.7,2.23l-1.7,-1.01l-2.65,3.6a16.89,16.62 0 0 1 -22.41,-6.42l0,0l-2.64,-3.06l-1.93,-4.33l1.07,-5.02l-0.9,-36.17a15.85,15.59 0 0 1 11.04,-15.23z" fill="#2f2e41" id="svg_63"/>
    <path d="m219.82,241.27l-14.32,-5.44a3.03,2.98 0 0 1 -1.73,-3.85l10.58,-26.92a3.03,2.98 0 0 1 3.91,-1.7l14.32,5.45a3.03,2.98 0 0 1 1.73,3.84l-10.58,26.93a3.03,2.98 0 0 1 -3.91,1.7l0,-0.01z" fill="#3f3d56" id="svg_64"/>
    <path d="m231.5,219.79a0.13,0.13 0 0 0 -0.16,0.07l-1.47,3.75a0.13,0.13 0 0 0 0.24,0.09l1.47,-3.75a0.13,0.13 0 0 0 -0.08,-0.16z" fill="#3f3d56" id="svg_65"/>
    <path d="m234.03,212.55l-10.58,26.92a2.73,2.69 0 0 1 -3.36,1.6l0,-0.01c-0.02,0 -0.04,-0.01 -0.06,-0.01c-0.03,-0.01 -0.07,-0.03 -0.11,-0.04c0,0 -0.12,-0.06 -0.36,-0.17c-0.24,-0.11 -0.58,-0.27 -1.01,-0.47q-0.19,-0.09 -0.4,-0.19c-0.28,-0.13 -0.59,-0.28 -0.92,-0.44c-0.13,-0.06 -0.27,-0.13 -0.41,-0.2c-0.71,-0.34 -1.51,-0.73 -2.35,-1.15q-0.21,-0.1 -0.43,-0.21c-0.03,-0.02 -0.08,-0.04 -0.12,-0.06c-0.6,-0.3 -1.21,-0.61 -1.83,-0.92l-0.12,-0.06c-1.05,-0.54 -2.12,-1.09 -3.1,-1.63c-0.76,-0.41 -1.47,-0.81 -2.11,-1.19q-0.31,-0.19 -0.59,-0.36c-0.04,-0.02 -0.08,-0.05 -0.11,-0.07c-1.33,-0.83 -2.16,-1.49 -2.03,-1.81l10.58,-26.92a2.73,2.69 0 0 1 3.54,-1.54l1.52,0.58a0.5,0.49 0 0 1 0.29,0.6c-0.01,0.02 -0.01,0.03 -0.01,0.05a0.55,0.55 0 0 0 0.36,0.6l9.32,3.54a0.55,0.55 0 0 0 0.68,-0.21c0.01,-0.01 0.01,-0.03 0.02,-0.05a0.5,0.49 0 0 1 0.63,-0.25l1.52,0.58a2.73,2.69 0 0 1 1.56,3.47l-0.01,0.02z" fill="#FF7F50" id="svg_66"/>
    <path d="m212.59,209.36a0.13,0.13 0 0 0 -0.17,0.07l-0.36,0.94a0.13,0.13 0 0 0 0.24,0.09l0.36,-0.94a0.13,0.13 0 0 0 -0.07,-0.16z" fill="#3f3d56" id="svg_67"/>
    <path d="m211.49,212.18a0.13,0.13 0 0 0 -0.16,0.07l-0.71,1.82a0.13,0.13 0 0 0 0.24,0.09l0.71,-1.82a0.13,0.13 0 0 0 -0.08,-0.16z" fill="#3f3d56" id="svg_68"/>
    <path d="m210.47,214.76a0.13,0.13 0 0 0 -0.16,0.07l-0.71,1.82a0.13,0.13 0 1 0 0.24,0.09l0.71,-1.82a0.13,0.13 0 0 0 -0.08,-0.16z" fill="#3f3d56" id="svg_69"/>
    <rect fill="#3f3d56" height="0.47" id="svg_70" rx="0.23" transform="matrix(0.310643 0.133361 -0.120035 0.345129 32.8288 -56.6293)" width="3.64" x="461.84" y="383.73"/>
    <circle cx="231.14" cy="209.11" fill="#3f3d56" id="svg_71" r="0.25"/>
    <circle cx="231.8" cy="209.36" fill="#3f3d56" id="svg_72" r="0.25"/>
    <circle cx="232.46" cy="209.6" fill="#3f3d56" id="svg_73" r="0.25"/>
    <path d="m222.51,219.09a2.45,2.41 0 0 1 -2.7,1.51l-2.66,6.79a0.49,0.48 0 1 1 -0.92,-0.35l2.67,-6.79a2.45,2.41 0 1 1 3.61,-1.16z" fill="#fff" fill-rule="evenodd" id="svg_74"/>
    <path d="m194.52,129.19a2.83,2.79 0 0 1 -3.11,1.74l-3.08,7.85a0.57,0.56 0 1 1 -1.05,-0.4l3.08,-7.84a2.83,2.78 0 1 1 4.16,-1.34l0,-0.01z" fill="#FF7F50" id="svg_75"/>
   </g>
  </g>
  <path d="m706.88,217.05c0,0.66 0.53,1.19 1.19,1.19l361.29,0c0.66,0 1.19,-0.53 1.19,-1.19c0,-0.66 -0.53,-1.19 -1.19,-1.19l-361.29,0c-0.66,0 -1.19,0.53 -1.19,1.19z" fill="#ccc" id="svg_77"/>
 </g>
</svg>