<?xml version="1.0"?>
<svg width="272.64315" height="598.3067" xmlns="http://www.w3.org/2000/svg" xmlns:svg="http://www.w3.org/2000/svg">
 <g class="layer">
  <title>Layer 1</title>
  <g id="svg_40">
   <path d="m-112.77,592.36c0,0.97 0.69,1.76 1.55,1.76l469.69,0c0.85,0 1.55,-0.79 1.55,-1.76c0,-0.97 -0.69,-1.76 -1.55,-1.76l-469.69,0c-0.85,0 -1.55,0.79 -1.55,1.76zm0,0" fill="rgb(80.000001%,80.000001%,80.000001%)" fill-rule="nonzero" id="svg_41"/>
   <path d="m193.54,212.88l-16.67,-130.39l14.71,-1.79c15.37,-1.86 29.67,8.35 34.78,24.87c9.25,13.44 14.65,29.21 14.9,48.1c5.97,19.32 -2.97,40.75 -19.95,47.74l-27.78,11.47zm0,0" fill="rgb(24.705882%,23.921569%,33.725491%)" fill-rule="nonzero" id="svg_42"/>
   <path d="m195.43,561.4l-11.17,0.29l-6.25,-56.99l16.51,-0.43l0.92,57.13zm0,0" fill="rgb(62.7451%,38.039216%,41.568628%)" fill-rule="nonzero" id="svg_43"/>
   <path d="m157.05,587.85c0,2.15 1.33,3.87 2.97,3.87l22.22,0c0,0 2.21,-9.93 11.11,-14.23l0.6,14.23l11.46,0l-1.39,-22.9c0,0 3.06,-12.26 -3.28,-18.53c-6.38,-6.24 -1.2,-5.38 -1.2,-5.38l-2.53,-14.16l-17.3,2.29l-0.13,22.26l-8.4,22.08l-12.34,6.92c-1.1,0.61 -1.8,2.01 -1.8,3.55zm0,0" fill="rgb(18.431373%,18.039216%,25.490198%)" fill-rule="nonzero" id="svg_44"/>
   <path d="m154.56,560.97l-11.21,0.29l-6.22,-56.99l16.51,-0.43l0.92,57.13zm0,0" fill="rgb(62.7451%,38.039216%,41.568628%)" fill-rule="nonzero" id="svg_45"/>
   <path d="m116.17,587.42c0,2.15 1.33,3.87 3,3.87l22.19,0c0,0 2.18,-9.96 11.11,-14.23l0.6,14.23l11.46,0l-1.39,-22.9c0,0 3.06,-12.26 -3.28,-18.53c-6.38,-6.24 -1.23,-5.38 -1.23,-5.38l-2.49,-14.16l-17.3,2.29l-0.16,22.26l-8.4,22.08l-12.31,6.92c-1.1,0.61 -1.8,2.01 -1.8,3.55zm0,0" fill="rgb(18.431373%,18.039216%,25.490198%)" fill-rule="nonzero" id="svg_46"/>
   <path d="m186.75,74.75l-40.28,7.92c-2.78,-8.03 -16.22,-30.29 -17.39,-38.17c-2.97,-20.5 10.51,-39.39 28.79,-40.93c17.55,-1.51 28.22,2.22 29.73,21.15c0.51,6.63 8.14,12.65 9.66,19.07c8.49,35.48 -8.46,23.4 -10.51,30.97zm0,0" fill="rgb(18.431373%,18.039216%,25.490198%)" fill-rule="nonzero" id="svg_47"/>
   <path d="m126.27,223.34l-2.65,45.66l11.3,254.51l20.8,-4.41l14.05,-207.41l5.11,211.03l24.53,1l17.23,-247.81c1.33,-18.96 -3.06,-37.85 -12.41,-53.58l-77.97,1zm0,0" fill="rgb(18.431373%,18.039216%,25.490198%)" fill-rule="nonzero" id="svg_48"/>
   <path d="m177.06,76.36l-32.13,0l-7.29,12.94l-25.41,11.9l14.05,113.19l-3.5,48.67c19.79,7.6 65.75,19.39 99.02,-11.72l-29.83,-60.79l7.01,-85.41l-13.57,-13.98l-8.33,-14.8zm0,0" fill="rgb(100%,49.803922%,31.37255%)" fill-rule="nonzero" id="svg_49"/>
   <path d="m183.59,42.42c0,-15.23 -10.89,-27.53 -24.31,-27.53c-13.42,0 -24.31,12.29 -24.31,27.53c0,15.2 10.89,27.53 24.31,27.53c13.42,0 24.31,-12.33 24.31,-27.53zm0,0" fill="rgb(62.7451%,38.039216%,41.568628%)" fill-rule="nonzero" id="svg_50"/>
   <path d="m219.26,289.47c-0.54,-3.01 -0.41,-5.88 0.19,-8.24l-6.57,-28.1l11.9,-3.15l5.4,28.85c1.36,1.94 2.43,4.52 2.94,7.53c1.2,6.81 -0.95,13.05 -4.77,13.91c-3.85,0.86 -7.89,-3.98 -9.09,-10.79zm0,0" fill="rgb(62.7451%,38.039216%,41.568628%)" fill-rule="nonzero" id="svg_51"/>
   <path d="m182.77,98.69c0,0 14.9,-6.92 21.91,5.99c7.01,12.9 25.41,164.83 25.41,164.83l-15.34,2.47l-30.24,-122.61l-1.74,-50.68zm0,0" fill="rgb(100%,49.803922%,31.37255%)" fill-rule="nonzero" id="svg_52"/>
   <path d="m193.41,186.07l-12.44,-98.85l10.61,9.61l1.83,89.24zm0,0" fill="rgb(24.705882%,23.921569%,33.725491%)" fill-rule="nonzero" id="svg_53"/>
   <path d="m186.88,123.28c-1.99,2.29 -4.29,3.94 -6.47,4.73l-17.71,23.44l-9.6,-9.89l19,-22.69c0.66,-2.51 2.02,-5.16 4.01,-7.49c4.55,-5.27 10.64,-6.92 13.6,-3.66c2.97,3.3 1.7,10.25 -2.84,15.56zm0,0" fill="rgb(62.7451%,38.039216%,41.568628%)" fill-rule="nonzero" id="svg_54"/>
   <path d="m128.48,94.39c0,0 -16.73,2.15 -17.99,10.07c-1.29,7.89 7.76,81.22 7.76,81.22l12.59,15.12l49.18,-66.41l-14.8,-10.5l-22.73,20.25l-14.01,-49.75zm0,0" fill="rgb(100%,49.803922%,31.37255%)" fill-rule="nonzero" id="svg_55"/>
   <path d="m156.32,7.94c-9.88,1.97 -19.48,8.03 -24.59,17.81c-5.15,9.78 -14.52,23.4 -7.73,31.76c2.37,2.87 5.37,5.05 7.48,8.17c3.6,5.3 4.14,12.72 2.34,19.14c-1.8,6.34 -5.65,11.76 -10.07,16.2c9.44,-1.11 18.06,-8.71 21.31,-18.82c1.52,-4.66 1.83,-10.25 -0.76,-14.3c-1.36,-2.11 -3.38,-3.55 -5.08,-5.3c-4.45,-4.48 -1.58,-11.25 -1.58,-17.99c0.03,-6.77 0.79,-11.47 5.27,-15.91c3.09,2.8 13.32,2.15 17.2,1.4c3.91,-0.72 14.8,16.27 16.95,12.51c4.23,6.13 1.36,-6.49 0.57,1.22c-0.57,5.52 -3.79,10.25 -4.73,15.7c-0.85,4.73 0.06,9.68 1.55,14.23c3.31,10.21 9.53,19.21 17.52,25.27c-4.61,-7.38 -9.41,-15.45 -9.25,-24.48c0.09,-6.7 12.72,-32.36 14.49,-38.74c3.38,-12.26 -5.93,-14.05 -13.1,-23.98c-6.34,-8.71 -18.56,-5.99 -28.22,-3.44" fill="rgb(18.431373%,18.039216%,25.490198%)" fill-rule="nonzero" id="svg_56"/>
  </g>
 </g>
</svg>